<?xml version="1.0" encoding="UTF-8"?>
<svg id="_레이어_1" data-name="레이어 1" xmlns="http://www.w3.org/2000/svg" xmlns:xlink="http://www.w3.org/1999/xlink" viewBox="0 0 820 360">
  <defs>
    <style>
      .cls-1 {
        fill: #fff;
      }

      .cls-2 {
        fill: #003faa;
      }

      .cls-3 {
        fill: url(#_未命名漸層_3-3);
      }

      .cls-4 {
        fill: url(#_무제_그라디언트_636);
        opacity: .85;
      }

      .cls-5 {
        fill: url(#_무제_그라디언트_982);
      }

      .cls-6 {
        fill: url(#_未命名漸層_3);
      }

      .cls-7 {
        fill: url(#_未命名漸層_3-2);
      }
    </style>
    <linearGradient id="_무제_그라디언트_982" data-name="무제 그라디언트 982" x1="-36.89" y1="142.52" x2="337.48" y2="237.88" gradientUnits="userSpaceOnUse">
      <stop offset="0" stop-color="#4a4fe8"/>
      <stop offset=".18" stop-color="#255fef"/>
      <stop offset=".34" stop-color="#0a6cf4"/>
      <stop offset=".44" stop-color="#0071f7"/>
      <stop offset=".52" stop-color="#0878f7"/>
      <stop offset=".64" stop-color="#1e8cf8"/>
      <stop offset=".79" stop-color="#43adfb"/>
      <stop offset=".96" stop-color="#75dafe"/>
      <stop offset="1" stop-color="#82e6ff"/>
    </linearGradient>
    <linearGradient id="_未命名漸層_3" data-name="未命名漸層 3" x1="-280.19" y1="535.55" x2="-271.16" y2="535.55" gradientTransform="translate(482.78 -287.05) rotate(-5.69)" gradientUnits="userSpaceOnUse">
      <stop offset="0" stop-color="#23acba"/>
      <stop offset=".25" stop-color="#3ec9d3"/>
      <stop offset=".55" stop-color="#59e5eb"/>
      <stop offset=".81" stop-color="#69f6f9"/>
      <stop offset="1" stop-color="#6ffcff"/>
    </linearGradient>
    <linearGradient id="_未命名漸層_3-2" data-name="未命名漸層 3" x1="-246.21" y1="535.55" x2="-237.17" y2="535.55" xlink:href="#_未命名漸層_3"/>
    <linearGradient id="_未命名漸層_3-3" data-name="未命名漸層 3" x1="-263.2" y1="535.55" x2="-254.17" y2="535.55" xlink:href="#_未命名漸層_3"/>
    <linearGradient id="_무제_그라디언트_636" data-name="무제 그라디언트 636" x1="-387.8" y1="459.3" x2="-247.52" y2="459.3" gradientTransform="translate(482.78 -287.05) rotate(-5.69)" gradientUnits="userSpaceOnUse">
      <stop offset="0" stop-color="#07ebca"/>
      <stop offset=".09" stop-color="#15edd1"/>
      <stop offset=".36" stop-color="#3cf3e5"/>
      <stop offset=".62" stop-color="#58f8f3"/>
      <stop offset=".84" stop-color="#68fbfb"/>
      <stop offset="1" stop-color="#6ffcff"/>
    </linearGradient>
  </defs>
  <g>
    <path class="cls-2" d="M403,181.54h-28.26l-6.96,27.92h-27.7l25.6-102.68h55.96c23.19,0,30.8,17.79,25.92,37.38-4.88,19.59-21.37,37.38-44.56,37.38ZM402.14,158.79c8.44,0,15.53-5.86,17.72-14.64,2.19-8.78-1.98-14.64-10.42-14.64h-21.73l-7.3,29.27h21.73Z"/>
    <path class="cls-2" d="M511.2,143.48l1.8-7.21h24.77l-18.25,73.18h-24.77l1.8-7.21c-6.75,5.86-15.31,9.46-25.44,9.46-20.16,0-30.33-17.45-24.99-38.84,5.36-21.5,24.21-38.84,44.36-38.84,10.13,0,16.89,3.6,20.72,9.46ZM502.72,172.98l.17-.68c2.02-9.01-.38-17.45-10.96-17.45s-17.64,8.89-19.95,18.13c-2.3,9.23.21,18.13,10.91,18.13s17.53-8.89,19.83-18.13Z"/>
    <path class="cls-2" d="M585.61,156.99c-7.77,0-14.24,5.18-16.17,12.95l-9.85,39.52h-25.9l9.83-39.41c5.05-20.27,21.93-33.78,42.2-33.78h22.86l-5.17,20.72h-17.79Z"/>
    <path class="cls-2" d="M670.82,143.48l1.8-7.21h24.77l-18.25,73.18h-24.77l1.8-7.21c-6.75,5.86-15.31,9.46-25.44,9.46-20.15,0-30.33-17.45-24.99-38.84,5.36-21.5,24.21-38.84,44.36-38.84,10.14,0,16.89,3.6,20.72,9.46ZM662.34,172.98l.17-.68c2.02-9.01-.38-17.45-10.96-17.45s-17.64,8.89-19.95,18.13c-2.3,9.23.21,18.13,10.91,18.13s17.53-8.89,19.83-18.13Z"/>
    <path class="cls-2" d="M730.18,165.44l-10.98,44.02h-25.9l11.26-45.15c4.55-18.24,23.09-30.29,46.4-30.29s35.84,12.05,31.29,30.29l-11.26,45.15h-25.9l10.98-44.02c1.6-6.42-2.51-10.7-10.28-10.7s-14.01,4.28-15.61,10.7Z"/>
  </g>
  <g>
    <path class="cls-2" d="M391.09,263.44c0-13.42,9.87-23.23,23.28-23.23,11.48,0,19.4,6.65,21.73,15.97h-5.93c-1.89-6.26-7.6-10.59-15.69-10.59-10.2,0-17.57,7.43-17.57,17.85s7.43,17.85,17.57,17.85c8.32,0,14.53-4.88,16.13-11.2h5.93c-1.94,9.26-10.42,16.58-22.18,16.58-13.42,0-23.28-9.81-23.28-23.23Z"/>
    <path class="cls-2" d="M444.81,263.44c0-13.42,9.92-23.23,23.4-23.23s23.45,9.81,23.45,23.23-9.92,23.23-23.4,23.23-23.45-9.81-23.45-23.23ZM485.84,263.44c0-10.48-7.48-17.91-17.63-17.91s-17.57,7.43-17.57,17.91,7.48,17.91,17.63,17.91,17.57-7.48,17.57-17.91Z"/>
    <path class="cls-2" d="M507.18,241.27l17.13,30.16,17.13-30.16h5.1v44.41h-5.82v-32.76l-14.3,25.28h-4.21l-14.3-25.28v32.76h-5.82v-44.41h5.1Z"/>
    <path class="cls-2" d="M574.54,241.27c11.53,0,18.29,6.15,18.29,15.41s-6.76,15.41-18.29,15.41h-9.92v13.58h-5.82v-44.41h15.74ZM587.02,256.68c0-6.6-4.88-10.15-12.92-10.15h-9.48v20.29h9.48c8.04,0,12.92-3.55,12.92-10.15Z"/>
    <path class="cls-2" d="M625.66,274.7h-21.34l-4.43,10.98h-6.1l18.29-44.41h6.15l18.24,44.41h-6.38l-4.44-10.98ZM623.61,269.54l-8.59-21.45-8.65,21.45h17.24Z"/>
    <path class="cls-2" d="M650.61,241.27l26.89,34.59v-34.87h5.88v44.41h-5.49l-26.89-34.59v34.87h-5.82v-44.41h5.43Z"/>
    <path class="cls-2" d="M715.58,270.82v14.86h-5.88v-14.86l-17.41-29.55h6.6l13.97,24.12,14.41-24.12h6.26l-17.96,29.55Z"/>
  </g>
  <g>
    <path class="cls-5" d="M227.78,79.05l-140.87,14.03c-12.83,1.28-23.18,11.06-25.17,23.81l-12.04,77.07h0s-2.5,15.99-2.5,15.99c-.19,1.21-.29,2.4-.32,3.58l-10.04,69.63.19.08c-.03.61-.06,1.22,0,1.85.72,7.2,7.14,12.46,14.34,11.74,3.34-.33,6.23-1.93,8.33-4.22l.05.02,47.94-53.09,111.17-11.07c12.83-1.28,23.18-11.06,25.17-23.81l14.54-93.07c2.86-18.31-12.34-34.39-30.78-32.55Z"/>
    <g>
      <circle class="cls-6" cx="261.52" cy="273.18" r="4.52"/>
      <circle class="cls-7" cx="295.34" cy="269.81" r="4.52"/>
      <circle class="cls-3" cx="278.43" cy="271.49" r="4.52"/>
    </g>
    <path class="cls-4" d="M287.88,253.7l-43.39,4.32-21.38,2.13-35.58,3.54c-15.12,1.51-29.55-10.31-34.79-28.48l-10.41-36.06c-7.25-25.11,5.78-51.07,26.67-53.15l56.97-5.67c15.12-1.51,29.55,10.31,34.79,28.48"/>
    <polygon class="cls-1" points="260.54 248.43 253.62 257.11 275.07 254.97 260.54 248.43"/>
  </g>
</svg>