<svg width="148" height="73" viewBox="0 0 148 73" fill="none" xmlns="http://www.w3.org/2000/svg">
<g clip-path="url(#clip0_295_6395)">
<path d="M15.9137 21.1387H24.7934L13.8304 33.0669L25.7836 46.3303H16.4999L7.24791 35.4033H7.17662V46.3303H0V21.1387H7.16078V31.5332H7.23207L15.8979 21.1387H15.9137Z" fill="#231815"/>
<path d="M46.3939 46.3303H54.0379L43.6532 21.1387H35.8349L25.2363 46.3303H32.8407L39.6767 28.9266H39.748L46.4018 46.3303H46.3939Z" fill="#231815"/>
<path d="M56.2637 46.3301H63.4324V38.574H71.7021C77.952 38.574 81.4611 35.872 81.4611 29.7291C81.4611 23.5862 77.3658 21.1465 71.4407 21.1465H56.2637V46.3381V46.3301ZM63.4324 26.4232H68.8584C71.6308 26.4232 74.0072 26.455 74.0072 29.9437C74.0072 33.4324 71.4486 33.3211 68.8584 33.3211H63.4324V26.4232Z" fill="#231815"/>
<path d="M118.486 1.06493L97.946 21.6712C96.8767 22.744 96.8767 24.4685 97.946 25.5413L117.725 45.3926C118.795 46.4654 120.529 46.4813 121.591 45.4085L141.386 25.5731C142.455 24.5003 142.439 22.752 141.37 21.6871L126.462 6.70721C125.393 5.63438 123.69 5.62644 122.621 6.69926L105.772 23.6023L119.666 37.549L133.544 23.6261L120.846 10.8873L124.569 7.16018L139.921 22.5612C140.507 23.1493 140.507 24.1109 139.921 24.6989L120.727 43.9542C120.141 44.5423 119.199 44.5423 118.612 43.9542L99.4035 24.6672C98.8174 24.0791 98.8253 23.1255 99.4115 22.5374L119.84 2.0424C122.438 -0.56418 126.645 -0.548286 129.243 2.05829L146.044 18.8977C148.642 21.5043 148.65 25.7241 146.052 28.3307L124.427 50.0256C121.828 52.6322 117.559 52.6799 114.953 50.0733L93.2963 28.3386C90.6981 25.732 90.6981 21.4963 93.2963 18.8898L110.168 1.96293C112.426 -0.301933 115.903 -0.58802 118.486 1.07288V1.06493Z" fill="#74C0E2"/>
<path d="M7.42218 68.5497C6.77264 68.0013 6.17063 67.4053 5.62406 66.7457C5.0775 66.0861 4.63391 65.355 4.30122 64.5603C3.92892 65.4107 3.46157 66.1974 2.90709 66.9206C2.3526 67.6437 1.75851 68.2556 1.14066 68.7722L0 67.3735C0.562406 66.9206 1.07729 66.404 1.54464 65.8398C2.01199 65.2756 2.39221 64.6478 2.69321 63.9643C2.81995 63.6703 2.93085 63.3763 3.01006 63.0743C3.0972 62.7802 3.16057 62.4862 3.20809 62.1842C3.2477 61.8902 3.27938 61.5326 3.31107 61.1273C3.34275 60.7141 3.3586 60.3565 3.3586 60.0386H0.879255V58.2346H7.82616V60.0386H5.21216C5.21216 60.1975 5.21216 60.3723 5.21216 60.5551C5.21216 60.7379 5.228 60.9366 5.23592 61.1352C5.24384 61.3339 5.25969 61.5246 5.28345 61.7154C5.29929 61.9061 5.33098 62.065 5.35474 62.2001C5.44188 62.7564 5.61614 63.3365 5.86962 63.9405C6.17855 64.6239 6.55877 65.2279 7.0182 65.7683C7.47763 66.3087 7.96874 66.7775 8.49946 67.1987L7.42218 68.5497ZM11.0422 64.4253V72.833H9.26782V56.8042H11.0422V62.6213H13.0462V64.4253H11.0422Z" fill="black"/>
<path d="M16.0084 57.257H24.8564V59.0609H17.7828V60.4278C17.7828 60.5788 17.8224 60.698 17.8937 60.7854C17.9649 60.8807 18.0758 60.9205 18.2105 60.9205H25.0386V62.7244H21.2998V63.7814H26.7179V65.5853H14.1152V63.7814H19.5254V62.7244H17.957C17.3629 62.7244 16.8956 62.5734 16.5391 62.2714C16.1827 61.9695 16.0084 61.5324 16.0084 60.9523V57.249V57.257ZM24.088 69.5746C24.088 70.1071 23.993 70.5839 23.8108 71.0051C23.6207 71.4104 23.3672 71.768 23.0424 72.0779C22.8761 72.2209 22.6939 72.356 22.5038 72.4593C22.3137 72.5627 22.0998 72.666 21.878 72.7534C21.3869 72.9123 20.8958 72.9918 20.4047 72.9918C20.1354 72.9918 19.8819 72.9759 19.6442 72.9362C19.4066 72.8964 19.169 72.8408 18.9393 72.7772C18.4561 72.5944 18.0679 72.3719 17.7748 72.0938C17.4184 71.7521 17.1649 71.3945 17.0065 71.021C16.8164 70.5998 16.7292 70.123 16.7292 69.5746C16.7292 69.066 16.8243 68.5972 17.0065 68.176C17.1015 67.9614 17.2124 67.7627 17.3392 67.58C17.4659 67.3972 17.6085 67.2382 17.7748 67.0873C18.0996 66.7773 18.4877 66.5389 18.9393 66.3561C19.3828 66.1893 19.866 66.1018 20.4047 66.1018C20.674 66.1018 20.9275 66.1177 21.173 66.1654C21.4186 66.2052 21.6562 66.2608 21.8859 66.3244C22.1157 66.4118 22.3216 66.5151 22.5117 66.6263C22.7018 66.7376 22.884 66.8647 23.0504 67.0078C23.3751 67.3177 23.6286 67.6753 23.8187 68.0965C24.0088 68.5415 24.096 69.0342 24.096 69.5746H24.088ZM22.3137 69.5746C22.3137 69.3124 22.2662 69.0581 22.1632 68.8197C22.0285 68.5813 21.8859 68.4064 21.7354 68.3031C21.5612 68.168 21.3552 68.0647 21.1334 67.9932C21.0146 67.9694 20.8958 67.9535 20.7691 67.9296C20.6423 67.9137 20.5235 67.9058 20.4047 67.9058C20.27 67.9058 20.1354 67.9137 20.0245 67.9296C19.9056 67.9455 19.7947 67.9694 19.6838 67.9932C19.4779 68.0647 19.2719 68.1601 19.066 68.2872C18.86 68.4621 18.7175 68.6289 18.6541 68.8038C18.5432 69.0183 18.4877 69.2806 18.4877 69.5746C18.4877 69.8687 18.5432 70.0912 18.6541 70.274C18.765 70.4806 18.9076 70.6475 19.0818 70.7905C19.2561 70.9335 19.4621 71.0289 19.6997 71.1004C19.9769 71.1561 20.2146 71.1878 20.4047 71.1878C20.6502 71.1878 20.8958 71.1561 21.1255 71.0845C21.3552 71.013 21.5533 70.9097 21.7275 70.7746C21.878 70.6713 22.0206 70.4965 22.1553 70.2581C22.2503 70.0673 22.3058 69.8369 22.3058 69.5746H22.3137Z" fill="black"/>
<path d="M35.1303 68.5497C34.4491 67.9378 33.8471 67.2782 33.3163 66.5868C32.7856 65.8954 32.3658 65.1723 32.0569 64.4173C31.7242 65.2676 31.2806 66.0544 30.7261 66.7696C30.1716 67.4848 29.6013 68.1364 28.9993 68.7166L27.7715 67.2702C28.1359 66.9206 28.4844 66.555 28.825 66.1815C29.1656 65.808 29.4666 65.4107 29.7439 64.9895C30.0132 64.5683 30.2508 64.1312 30.4568 63.6703C30.6548 63.2094 30.8053 62.7167 30.9083 62.1922C30.9558 61.9379 30.9954 61.6915 31.0192 61.4452C31.0429 61.1988 31.0588 60.9445 31.0588 60.6982H28.326V58.8942H31.1301V56.8519H33.0232V58.8942H35.7006V60.6982H32.9995C32.9995 61.167 33.047 61.6518 33.1341 62.1683C33.2213 62.7167 33.3718 63.2253 33.5698 63.6941C33.7678 64.163 34.0134 64.608 34.2906 65.0133C34.5679 65.4186 34.8847 65.8001 35.2174 66.1497C35.558 66.4994 35.9066 66.8173 36.2551 67.1113L35.1303 68.5576V68.5497ZM38.7661 64.4253V72.833H36.9918V56.8042H38.7661V62.6213H40.7781V64.4253H38.7661Z" fill="black"/>
<path d="M47.2733 72.8331V67.8742H41.8789V66.0703H54.4816V67.8742H49.0714V72.8331H47.2653H47.2733ZM51.0675 57.2651H52.8102V64.6319H46.2356C45.3959 64.6319 44.7464 64.4253 44.2711 64.02C43.7958 63.6147 43.5661 62.9551 43.5661 62.0571V57.2651H45.3405V59.2598H51.0754V57.2651H51.0675ZM51.0675 61.0717H45.3326V61.8743C45.3326 62.0412 45.3484 62.1922 45.3801 62.3114C45.4118 62.4306 45.4672 62.5339 45.5385 62.6134C45.6177 62.6929 45.7286 62.7485 45.887 62.7882C46.0455 62.828 46.2356 62.8359 46.4811 62.8359H51.0675V61.0796V61.0717Z" fill="black"/>
<path d="M66.2458 72.4676H59.497C58.9029 72.4676 58.4276 72.3166 58.0711 72.0226C57.7147 71.7286 57.5325 71.2915 57.5325 70.7114V66.7856H61.002V65.8002H55.5918V64.044H68.1944V65.8002H62.7843V66.7856H66.2379V72.4676H66.2458ZM56.9542 63.0347V61.3659H58.6811L58.6098 59.4586H60.3841L60.4554 61.3659H63.3229L63.41 59.4586H65.1685L65.0973 61.3659H66.8399V63.0347H56.9542ZM57.1285 58.9262V57.2573H66.6261V58.9262H57.1285ZM64.4715 70.6558V68.5896H59.2989V70.1551C59.2989 70.3061 59.3385 70.4253 59.4098 70.5127C59.4811 70.6001 59.592 70.6478 59.7267 70.6478H64.4715V70.6558Z" fill="black"/>
<path d="M74.4357 58.9181C74.4357 59.3869 74.4911 59.8399 74.61 60.2849C74.7288 60.7538 74.9189 61.1909 75.1882 61.6121C75.4575 62.0571 75.7981 62.4703 76.2259 62.8597C76.4318 63.0663 76.6615 63.2571 76.9229 63.4398C77.1764 63.6226 77.4616 63.7974 77.7626 63.9723L77.1685 64.6239L76.5665 65.3074C75.8298 64.91 75.2199 64.457 74.7525 63.9564C74.1981 63.4239 73.802 62.8518 73.5564 62.2319C72.994 63.6147 71.9722 64.759 70.483 65.6411C70.277 65.4266 70.079 65.1961 69.8889 64.9577C69.778 64.8544 69.683 64.7511 69.5879 64.6398C69.4928 64.5286 69.3978 64.4173 69.3027 64.306C69.5958 64.1153 69.8731 63.9166 70.1265 63.71C70.38 63.5034 70.6097 63.2888 70.8315 63.0584C71.0454 62.8438 71.2434 62.6213 71.4098 62.3909C71.5761 62.1604 71.7266 61.9379 71.8534 61.7074C71.988 61.477 72.1068 61.2465 72.2019 61.016C72.297 60.7856 72.3762 60.5472 72.4475 60.3088C72.5663 59.8558 72.6217 59.3869 72.6217 58.9101V57.1698H74.4515V58.9101L74.4357 58.9181ZM80.638 72.4039H73.8574C73.2633 72.4039 72.7881 72.2609 72.4316 71.9668C72.0752 71.6728 71.893 71.2437 71.893 70.6635V66.9444H73.6673V70.1152C73.6673 70.4331 73.8099 70.592 74.0951 70.592H80.638V72.396V72.4039ZM80.4162 62.7882V67.2067H78.6418V56.8042H80.4162V60.9843H82.4836V62.7882H80.4162Z" fill="black"/>
<path d="M94.3726 65.1406H92.5982V61.8188H90.5149C90.4278 62.2717 90.2852 62.685 90.0872 63.0664C89.8733 63.4638 89.6119 63.7816 89.3188 64.02C89.002 64.2902 88.6614 64.4969 88.297 64.632C87.9405 64.7829 87.5445 64.8545 87.1009 64.8545C86.6019 64.8545 86.1424 64.7591 85.7305 64.5684C85.2869 64.3777 84.9146 64.1075 84.6216 63.7657C84.2968 63.424 84.0433 63.0187 83.869 62.5419C83.6789 62.1128 83.5918 61.5962 83.5918 60.9923C83.5918 60.3883 83.6869 59.8877 83.869 59.4426C84.0433 58.9738 84.2968 58.5764 84.6216 58.2347C84.8988 57.9248 85.2632 57.6625 85.7305 57.4321C86.1741 57.2414 86.6335 57.146 87.1009 57.146C87.4811 57.146 87.8693 57.2175 88.2495 57.3526C88.6218 57.5036 88.9624 57.6943 89.2555 57.9327C89.5089 58.1632 89.7703 58.4572 90.0238 58.8387C90.2298 59.1883 90.3882 59.5857 90.4991 60.0307H92.5982V56.8281H94.3726V65.1644V65.1406ZM88.8515 60.9764C88.8515 60.6903 88.804 60.4201 88.7168 60.1579C88.6693 60.0307 88.6138 59.9195 88.5505 59.8082C88.4871 59.6969 88.4158 59.6016 88.3366 59.5062C88.2574 59.4109 88.1782 59.3314 88.0831 59.2678C87.9881 59.2042 87.893 59.1407 87.79 59.0771C87.5841 58.9738 87.3623 58.9261 87.1247 58.9261C86.8712 58.9261 86.6335 58.9738 86.4276 59.0771C86.2137 59.1804 86.0236 59.3234 85.8652 59.5062C85.7305 59.6652 85.6038 59.8797 85.4929 60.1579C85.4058 60.4201 85.3582 60.6903 85.3582 60.9764C85.3582 61.2943 85.4058 61.5724 85.4929 61.8108C85.6038 62.1048 85.7226 62.3194 85.8652 62.4625C85.984 62.6214 86.1741 62.7644 86.4276 62.8916C86.6335 62.9949 86.8633 63.0426 87.1247 63.0426C87.3623 63.0426 87.5841 62.9949 87.79 62.8916C87.996 62.7883 88.1782 62.6452 88.3366 62.4625C88.4871 62.2956 88.6138 62.0731 88.7168 61.8108C88.804 61.5724 88.8515 61.2943 88.8515 60.9764ZM92.6061 65.9193H94.3805V72.4835H87.7346C87.1405 72.4835 86.6732 72.3325 86.3167 72.0384C85.9602 71.7444 85.786 71.3073 85.786 70.7272V65.9193H87.5603V67.5882H92.6141V65.9193H92.6061ZM92.6061 70.8146V69.265H87.5524V70.3378C87.5524 70.6557 87.695 70.8146 87.9802 70.8146H92.6061Z" fill="black"/>
<path d="M95.6799 64.3219C96.0997 64.0359 96.5037 63.7259 96.8681 63.3842C97.2404 63.0425 97.5572 62.6769 97.8345 62.2955C98.1276 61.8743 98.3652 61.3895 98.5474 60.8412C98.7296 60.2929 98.8642 59.7604 98.9514 59.2439H96.377V57.4399H103.379V59.2439H100.797C100.852 59.7207 100.963 60.1975 101.114 60.6743C101.264 61.1511 101.47 61.5644 101.724 61.922C101.977 62.2875 102.302 62.6451 102.69 63.0028C103.078 63.3604 103.538 63.6862 104.068 63.9802L102.888 65.3074C102.239 64.9656 101.653 64.5286 101.13 64.0041C100.607 63.4716 100.195 62.8677 99.8861 62.1842C99.5217 62.971 99.0781 63.6465 98.5632 64.2107C98.0484 64.7829 97.4701 65.2597 96.8443 65.6411L95.6641 64.314L95.6799 64.3219ZM107.102 72.4039H100.274C99.6801 72.4039 99.2048 72.2609 98.8484 71.9668C98.4919 71.6728 98.3098 71.2437 98.3098 70.6635V66.9444H100.084V70.1152C100.084 70.4331 100.227 70.592 100.512 70.592H107.102V72.396V72.4039ZM106.944 67.2067H105.17V56.8042H106.944V67.2067Z" fill="black"/>
<path d="M120.775 64.5603V66.3007H108.172V64.5603H120.775ZM109.812 59.3074V57.6704H113.535V56.2876H115.364V57.6704H119.119V59.3074H117.535C117.86 59.7763 118.026 60.3167 118.026 60.9445C118.026 61.4928 117.923 61.9537 117.717 62.3352C117.511 62.7166 117.242 63.0265 116.901 63.265C116.568 63.5034 116.188 63.6782 115.76 63.7815C115.341 63.8928 114.905 63.9404 114.461 63.9404C114.018 63.9404 113.558 63.8848 113.131 63.7736C112.711 63.6623 112.331 63.4875 111.99 63.2411C111.657 63.0027 111.388 62.6928 111.19 62.3113C110.992 61.9299 110.897 61.469 110.897 60.9365C110.897 60.3008 111.047 59.7524 111.356 59.2995H109.804L109.812 59.3074ZM118.184 69.9165C118.184 70.3854 118.089 70.8065 117.907 71.1959C117.701 71.5694 117.432 71.8953 117.107 72.1655C116.751 72.4277 116.354 72.6343 115.911 72.7774C115.681 72.8489 115.451 72.8966 115.198 72.9363C114.952 72.976 114.699 72.9919 114.43 72.9919C113.907 72.9919 113.424 72.9204 112.98 72.7853C112.521 72.6264 112.125 72.4198 111.8 72.1734C111.443 71.9032 111.174 71.5774 110.984 71.2039C110.873 71.0132 110.802 70.8065 110.754 70.592C110.707 70.3774 110.691 70.1469 110.691 69.9085C110.691 69.4158 110.786 68.9788 110.984 68.5973C111.198 68.1761 111.475 67.8503 111.8 67.6119C112.125 67.3576 112.521 67.1589 112.98 67C113.424 66.8649 113.907 66.7934 114.43 66.7934C114.952 66.7934 115.436 66.8649 115.903 67C116.133 67.0795 116.347 67.1748 116.545 67.2781C116.743 67.3894 116.933 67.5006 117.099 67.6278C117.392 67.8821 117.661 68.2079 117.899 68.6132C118.089 69.0105 118.176 69.4397 118.176 69.9085L118.184 69.9165ZM116.41 69.9165C116.41 69.7258 116.354 69.5271 116.244 69.3364C116.188 69.2489 116.117 69.1695 116.038 69.098C115.958 69.0264 115.871 68.9708 115.784 68.9072C115.61 68.8198 115.396 68.7324 115.15 68.6529C115.032 68.6291 114.913 68.6132 114.786 68.5894C114.659 68.5735 114.541 68.5655 114.422 68.5655C114.303 68.5655 114.184 68.5735 114.073 68.5894C113.962 68.6053 113.851 68.6291 113.74 68.6529C113.622 68.6847 113.511 68.7245 113.4 68.7562C113.289 68.788 113.194 68.8357 113.107 68.8913C112.901 69.0185 112.742 69.1615 112.632 69.3205C112.513 69.4953 112.457 69.694 112.457 69.9165C112.457 70.139 112.513 70.3297 112.632 70.4807C112.766 70.6714 112.925 70.8145 113.091 70.9098C113.178 70.9655 113.281 71.0132 113.384 71.0449C113.495 71.0767 113.606 71.1165 113.725 71.1483C113.843 71.1721 113.962 71.188 114.073 71.2118C114.184 71.2277 114.303 71.2357 114.422 71.2357C114.541 71.2357 114.659 71.2277 114.786 71.2118C114.913 71.1959 115.032 71.1721 115.15 71.1483C115.269 71.1165 115.38 71.0767 115.483 71.0449C115.586 71.0132 115.689 70.9655 115.784 70.9098C115.958 70.8065 116.117 70.6635 116.244 70.4807C116.354 70.3218 116.41 70.1311 116.41 69.9165ZM116.188 60.9445C116.188 60.3961 116.022 60.0067 115.697 59.7763C115.372 59.5458 114.96 59.4266 114.453 59.4266C113.923 59.4266 113.503 59.5538 113.194 59.8001C112.885 60.0465 112.727 60.4279 112.727 60.9445C112.727 61.461 112.885 61.8425 113.218 62.0729C113.542 62.3034 113.954 62.4146 114.461 62.4146C114.992 62.4146 115.412 62.2954 115.721 62.065C116.03 61.8345 116.188 61.461 116.188 60.9445Z" fill="black"/>
<path d="M128.252 68.5498C127.578 67.8902 127.056 67.2545 126.667 66.6505C126.287 66.0386 125.962 65.4029 125.709 64.7353C125.4 65.5221 125.044 66.2452 124.624 66.9048C124.204 67.5644 123.689 68.1922 123.063 68.7803L121.867 67.4531C122.667 66.7061 123.277 65.9035 123.697 65.0691C124.117 64.2267 124.426 63.2731 124.616 62.2082C124.632 62.0572 124.655 61.8903 124.671 61.7076C124.687 61.5248 124.703 61.3261 124.719 61.1354C124.735 60.9447 124.743 60.746 124.758 60.5553C124.766 60.3645 124.774 60.1897 124.774 60.0308H122.739V58.2268H128.767V60.0308H126.628C126.628 60.3486 126.636 60.7221 126.66 61.1513C126.675 61.5804 126.715 61.938 126.778 62.232C126.968 63.3128 127.269 64.2506 127.705 65.0373C128.133 65.824 128.679 66.5551 129.353 67.2306L128.275 68.5816L128.252 68.5498ZM131.135 72.3166H129.424V56.9712H131.135V62.6135H132.402V56.7964H134.145V72.8252H132.402V64.4174H131.135V72.3087V72.3166Z" fill="black"/>
<path d="M135.754 57.6864H142.384V59.4268H137.52V63.3128C137.52 63.6307 137.663 63.7896 137.948 63.7896H142.97V65.53H137.695C137.101 65.53 136.633 65.379 136.277 65.077C135.92 64.775 135.746 64.3379 135.746 63.7578V57.6864H135.754ZM145.988 72.6583H139.2C138.606 72.6583 138.13 72.5073 137.774 72.2133C137.417 71.9193 137.235 71.4822 137.235 70.9021V67.167H139.01V70.3696C139.01 70.6875 139.152 70.8464 139.437 70.8464H145.996V72.6504L145.988 72.6583ZM145.885 63.0426V67.4611H144.111V57.0586H145.885V61.2386H147.953V63.0426H145.885Z" fill="black"/>
</g>
<defs>
<clipPath id="clip0_295_6395">
<rect width="148" height="73" fill="white"/>
</clipPath>
</defs>
</svg>
